<?xml version="1.0" encoding="utf-8"?>
<!-- Generator: Adobe Illustrator 25.3.1, SVG Export Plug-In . SVG Version: 6.00 Build 0)  -->
<svg version="1.1" id="Слой_1" xmlns="http://www.w3.org/2000/svg" xmlns:xlink="http://www.w3.org/1999/xlink" x="0px" y="0px"
	 viewBox="0 0 100 100" style="enable-background:new 0 0 100 100;" xml:space="preserve">
<style type="text/css">
	.st0{fill:#DDDDDD;}
	.st1{fill-rule:evenodd;clip-rule:evenodd;fill:#DDDDDD;}
</style>
<g id="Слой_x0020_1">
	<polygon class="st0" points="65.03,54.85 55.62,64.26 54.31,62.98 63.71,53.57 	"/>
	<polygon class="st0" points="44.68,38.33 39.05,43.96 36.47,43.95 44.62,35.79 	"/>
	<path class="st0" d="M49.55,30.88L72.63,7.79l4.57,4.57l-1.4,1.19l-3.18-3.18l-21.7,21.7C50.93,32.08,49.55,30.88,49.55,30.88z
		 M80.75,15.9l11.61,11.61L72.54,47.35l-1.32-1.28l18.56-18.55L79.58,17.32L80.75,15.9L80.75,15.9z"/>
	<path class="st0" d="M31.5,48.93L8.41,72.01l4.57,4.57l1.19-1.4l-3.18-3.18l21.7-21.7C32.7,50.31,31.5,48.93,31.5,48.93z
		 M16.52,80.13l11.61,11.61l19.84-19.84l-1.28-1.32L28.14,89.16L17.94,78.96L16.52,80.13L16.52,80.13z"/>
	<path class="st1" d="M53.69,53.25c-1.21,1.21-3.32,1.23-4.26,1.6c-0.95,0.37-3.35,1.83-3.35,1.83s-2.64-0.52-3.68-1.03
		c-1.03-0.52-3.16-2.24-3.16-2.24s-1.06-0.37-1.49-0.57c-0.43-0.2-1.18-0.72-1.18-0.72l0.09-1.52l-1.12,0.6c0,0-1.7-1.47-2.33-2.1
		c-0.63-0.63-2.07-2.76-2.07-2.76s2.64-0.8,4.68-1.12c2.04-0.32,5.06,0.23,5.06,0.23s0.78-1.57,2.25-3.04s2.94-2.15,2.94-2.15
		s-0.55-3.02-0.23-5.06s1.12-4.68,1.12-4.68c2.21,1.49,3.29,2.45,4.71,4.09c1.1,1.28,1.73,2.22,2.36,4.02c0,0,1.55,1.95,2.24,3.16
		c0.69,1.21,1.03,3.68,1.03,3.68s-1.68,2.28-2.01,3.31C54.95,49.77,54.89,52.04,53.69,53.25L53.69,53.25z M44.92,50.71
		c0,0-0.02,0.77,0.46,1.25c0.48,0.48,1.27,0.56,1.27,0.56s-0.09-0.83-0.51-1.25S44.92,50.71,44.92,50.71L44.92,50.71z M42.5,52.24
		c0,0,0.79-1.24,2.71-1.9S48.79,50,48.79,50s-0.61,2.32-2.5,3.37C44.39,54.43,42.5,52.24,42.5,52.24z M51.19,44.44
		c0,0,0.77-0.02,1.25,0.46c0.48,0.48,0.56,1.27,0.56,1.27s-0.83-0.09-1.25-0.51S51.19,44.44,51.19,44.44L51.19,44.44z M52.71,42.03
		c0,0-1.24,0.79-1.9,2.71c-0.65,1.92-0.34,3.58-0.34,3.58s2.32-0.61,3.37-2.5C54.9,43.92,52.71,42.03,52.71,42.03z"/>
	<path class="st1" d="M55.81,55.19c0,0-2.61,2.58-4.62,3.47s-2.59,0.94-2.59,0.94l2.77,6.36l1.61-1.61l1.28,1.25l-4.93,4.93
		l-1.26-1.26l1.85-1.85l-4.31-6.84c0,0-2.99,2.44-6.06,4.11c-3.08,1.67-5.78,2.73-7.5,4.31c-1.72,1.58-1.41,1.34-2.47,2.28
		c-1.06,0.95-2.28,1.14-2.7,0.72c-0.42-0.42-0.7-0.73-1.16-1.19c-0.46-0.46-0.17-0.95-0.17-0.95l-0.37-0.34l-0.27,0.27
		c-0.1-0.1-0.41-0.71-1.21,0.09c-0.8,0.8-1.41,2.8-1.87,3.74c-0.46,0.93-6.81,6.44-8.23,7.23s-1.71-0.16-1.68-0.59
		s5.7-7.23,7.07-8.42s4.48-3.42,4.48-3.42l-0.32-0.32l0.31-0.31l-0.31-0.31l0.15-0.15c0,0-1.11-1.16-1.58-1.64
		c-0.47-0.47-0.28-1.17,0.06-1.5c0.34-0.33,1.07-0.45,1.49-0.03s1.58,1.51,1.58,1.51l0.09-0.09l0.3,0.3l0.4-0.4l0.33,0.33
		c0,0,2.56-3.51,3.78-4.88c1.22-1.37,7.57-6.68,8.1-6.7c0.53-0.01,1.37,0.5,0.73,1.68c-0.63,1.18-6.28,7.66-7.11,8.23
		c-0.83,0.57-3.02,1.15-3.84,2c-0.82,0.85-0.25,1.11-0.13,1.23l-0.28,0.26l0.22,0.23c0,0,0.98-1.01,1.66-1.25
		c0.68-0.24,1.99-0.78,2.77-1.27s6.64-6.98,7.29-7.98c0.65-0.99,0.9-1.87,0.9-1.87s1.58,1.19,2.85,1.71
		c1.26,0.52,2.8,0.73,3.28,0.66c0.47-0.07,2.43-1.34,3.08-1.64c0.65-0.3,2.03-0.62,2.83-0.76s1.89-0.82,2.6-1.54
		c0.72-0.72,1.32-1.72,1.46-2.52c0.14-0.8,0.46-2.18,0.76-2.83s1.57-2.6,1.64-3.08c0.07-0.47-0.14-2.01-0.66-3.28
		c-0.52-1.26-1.71-2.85-1.71-2.85s0.87-0.26,1.87-0.9c0.99-0.65,7.49-6.51,7.98-7.29c0.49-0.78,1.03-2.09,1.27-2.77
		c0.24-0.68,1.25-1.66,1.25-1.66l-0.23-0.22l-0.26,0.28c-0.11-0.11-0.38-0.69-1.23,0.13c-0.85,0.82-1.42,3-2,3.84
		c-0.57,0.83-7.06,6.48-8.23,7.11c-1.18,0.63-1.7-0.2-1.68-0.73c0.01-0.53,5.33-6.88,6.7-8.1c1.37-1.22,4.88-3.78,4.88-3.78
		l-0.33-0.33l0.4-0.4l-0.3-0.3l0.09-0.09c0,0-1.09-1.15-1.51-1.58s-0.31-1.15,0.03-1.49c0.33-0.34,1.03-0.54,1.5-0.06
		c0.47,0.47,1.64,1.58,1.64,1.58l0.15-0.15l0.31,0.31l0.31-0.31l0.32,0.32c0,0,2.23-3.12,3.42-4.48c1.19-1.37,7.99-7.04,8.42-7.07
		s1.38,0.26,0.59,1.68c-0.79,1.42-6.3,7.77-7.23,8.23s-2.94,1.07-3.74,1.87c-0.8,0.8-0.18,1.11-0.09,1.21l-0.27,0.27l0.34,0.37
		c0,0,0.49-0.29,0.95,0.17c0.46,0.46,0.77,0.74,1.19,1.16s0.23,1.64-0.72,2.7c-0.95,1.06-0.7,0.75-2.28,2.47
		c-1.58,1.72-2.64,4.43-4.31,7.5c-1.67,3.08-4.11,6.06-4.11,6.06l6.84,4.31l1.85-1.85l1.26,1.26l-4.93,4.93l-1.25-1.28l1.61-1.61
		l-6.36-2.77c0,0-0.04,0.57-0.94,2.59S55.81,55.19,55.81,55.19L55.81,55.19z"/>
</g>
</svg>
